<?xml version="1.0" encoding="utf-8"?>
<!-- Generator: Adobe Illustrator 21.0.0, SVG Export Plug-In . SVG Version: 6.00 Build 0)  -->
<svg version="1.1" id="Capa_1" xmlns="http://www.w3.org/2000/svg" xmlns:xlink="http://www.w3.org/1999/xlink" x="0px" y="0px"
	 viewBox="0 0 516 339" style="enable-background:new 0 0 516 339;" xml:space="preserve">
<g>
	<path d="M188.8,192l9.6,65.9c5.7,36.8,10.2,57.7,13.5,62.8c2.1,3.8,6.5,6.5,13.2,8.3c5.7,1.3,8.6,2.6,8.6,3.8
		c0,1.7-3.8,3.1-11.3,4.3c-6,1-10.9,1.5-14.5,1.5c-10.8,0-18.6-5.1-23.5-15.2c-3.8-8.5-12.3-54.1-25.5-137
		c-49.5,53.1-90.7,98.9-123.7,137.4c-8.4,9.8-14.3,14.7-17.7,14.7c-5.7,0-10.2-3.7-13.5-11c0.3-8.5,44-60.4,131.1-155.8
		c87-95.3,130.6-143.1,130.6-143.3l-0.5-0.7c-5.4,0.2-23.6,11.2-54.6,33L165,93.5c-2.6,0-3.9-1.6-3.9-4.7c0-4.2,19.7-19.4,59.1-45.6
		c40.1-26.5,64.2-39.7,72.6-39.7c3.1,0,6.8,1.8,11.2,5.5c4.3,3.7,6.5,7,6.5,9.9c0,1.8-6.3,9.4-18.9,22.8L269,65.3l-94.1,104.2
		l3.6-0.2c4.2-0.3,6.6,2.5,7.3,8.6L420.4,55c51.3-26.6,80.2-40,86.8-40c2.8,0,4.2,2.5,4.2,7.6c0,8-6.7,15.1-20.1,21.3l-42.9,19.6
		L188.8,192z"/>
</g>
<g>
</g>
<g>
</g>
<g>
</g>
<g>
</g>
<g>
</g>
<g>
</g>
<g>
</g>
<g>
</g>
<g>
</g>
<g>
</g>
<g>
</g>
<g>
</g>
<g>
</g>
<g>
</g>
<g>
</g>
</svg>
