<?xml version="1.0" encoding="utf-8"?>
<!-- Generator: Adobe Illustrator 21.0.0, SVG Export Plug-In . SVG Version: 6.00 Build 0)  -->
<svg version="1.1" id="Capa_1" xmlns="http://www.w3.org/2000/svg" xmlns:xlink="http://www.w3.org/1999/xlink" x="0px" y="0px"
	 viewBox="0 0 618 541.2" style="enable-background:new 0 0 618 541.2;" xml:space="preserve">
<style type="text/css">
	.st0{fill:#CCCCCC;}
	.st1{fill:#FFFFFF;}
</style>
<g>
	<path class="st0" d="M23,429.2V72.8h25.6v216.4L256.4,72.8H286L137.9,228.9l155.6,200.3h-29.1L121.4,244.5l-72.8,74.8v109.9H23z"/>
	<path class="st0" d="M341.7,429.2V72.8h25.6v216.4L575.2,72.8h29.6L456.7,228.9l155.6,200.3h-29.1L440.1,244.5l-72.8,74.8v109.9
		H341.7z"/>
</g>
<g>
	<path class="st1" d="M13,429.2V72.8h25.6v216.4L246.4,72.8H276L127.9,228.9l155.6,200.3h-29.1L111.4,244.5l-72.8,74.8v109.9H13z"/>
	<path class="st1" d="M331.7,429.2V72.8h25.6v216.4L565.2,72.8h29.6L446.7,228.9l155.6,200.3h-29.1L430.1,244.5l-72.8,74.8v109.9
		H331.7z"/>
</g>
<g>
</g>
<g>
</g>
<g>
</g>
<g>
</g>
<g>
</g>
<g>
</g>
<g>
</g>
<g>
</g>
<g>
</g>
<g>
</g>
<g>
</g>
<g>
</g>
<g>
</g>
<g>
</g>
<g>
</g>
</svg>
